<svg id="Layer_1" data-name="Layer 1" xmlns="http://www.w3.org/2000/svg" viewBox="0 0 90.44 77.88"><defs><style>.cls-1{fill:#222831;}.cls-2{fill:#f64b3c;}</style></defs><title>fav</title><path class="cls-1" d="M280.15,214.87a20.92,20.92,0,0,0-10-2.74A19.47,19.47,0,0,0,259.8,215a20.15,20.15,0,0,0-7.36,7.84,24.33,24.33,0,0,0,0,22.24,20.15,20.15,0,0,0,7.36,7.84,19.47,19.47,0,0,0,10.36,2.84,22.75,22.75,0,0,0,9.67-2.36,30.62,30.62,0,0,0,9-6.44l11.5,12.35a46,46,0,0,1-14.56,10.26,40.45,40.45,0,0,1-36.9-1.34,37.73,37.73,0,0,1-14.18-14.08,39.23,39.23,0,0,1-5.15-20,37.52,37.52,0,0,1,19.71-33.62A42.81,42.81,0,0,1,286.38,199a41.14,41.14,0,0,1,13.86,9.51l-11.39,13.75A28,28,0,0,0,280.15,214.87Z" transform="translate(-229.56 -195.48)"/><circle class="cls-2" cx="81.33" cy="68.77" r="9.11"/></svg>